<svg width="33" height="36" viewBox="0 0 33 36" fill="none" xmlns="http://www.w3.org/2000/svg">
<path d="M2.69531 15.0352C1.85938 15.0352 1.44141 14.8164 1.44141 14.3789V1.04297C1.44141 0.816406 1.54297 0.648437 1.74609 0.539062C1.94922 0.421875 2.26562 0.363281 2.69531 0.363281H3.79688C4.46094 0.363281 4.89453 0.554687 5.09766 0.9375L8.60156 7.16016L8.77734 7.46484L8.95312 7.10156L12.4805 0.9375C12.6914 0.554687 13.1289 0.363281 13.793 0.363281H14.8828C15.7188 0.363281 16.1367 0.589844 16.1367 1.04297V14.3789C16.1367 14.8164 15.7188 15.0352 14.8828 15.0352H14.2734C13.4375 15.0352 13.0195 14.8164 13.0195 14.3789V5.74219L12.9375 5.71875L9.91406 11.1211C9.73438 11.3867 9.45703 11.5195 9.08203 11.5195H8.48438C8.28906 11.5195 8.125 11.4883 7.99219 11.4258C7.85938 11.3555 7.74609 11.2539 7.65234 11.1211L4.61719 5.71875L4.53516 5.74219V14.3789C4.53516 14.8164 4.12109 15.0352 3.29297 15.0352H2.69531ZM25.4119 15.1758C23.99 15.1758 22.7791 14.8867 21.7791 14.3086C20.7869 13.7305 20.0291 12.8867 19.5056 11.7773C18.99 10.6602 18.7322 9.30078 18.7322 7.69922C18.7322 6.10547 18.99 4.75391 19.5056 3.64453C20.0291 2.52734 20.7869 1.68359 21.7791 1.11328C22.7791 0.535156 23.99 0.246094 25.4119 0.246094C26.8416 0.246094 28.0525 0.535156 29.0447 1.11328C30.0447 1.68359 30.8025 2.52734 31.3181 3.64453C31.8337 4.75391 32.0916 6.10547 32.0916 7.69922C32.0916 9.30078 31.8337 10.6602 31.3181 11.7773C30.8025 12.8867 30.0447 13.7305 29.0447 14.3086C28.0525 14.8867 26.8416 15.1758 25.4119 15.1758ZM25.4119 12.4336C26.5291 12.4336 27.3728 12.0312 27.9431 11.2266C28.5134 10.4141 28.7986 9.23828 28.7986 7.69922C28.7986 6.16016 28.5134 4.99219 27.9431 4.19531C27.3728 3.39844 26.5291 3 25.4119 3C24.3025 3 23.4587 3.40234 22.8806 4.20703C22.3103 5.00391 22.0252 6.16797 22.0252 7.69922C22.0252 9.23828 22.3142 10.4141 22.8923 11.2266C23.4705 12.0312 24.3103 12.4336 25.4119 12.4336ZM5.85938 35.0352C5.52344 35.0352 5.25781 35.0039 5.0625 34.9414C4.86719 34.8711 4.74609 34.7578 4.69922 34.6016L0.199219 21.207C0.136719 21.0195 0.105469 20.8945 0.105469 20.832C0.105469 20.5195 0.53125 20.3633 1.38281 20.3633H2.0625C2.75781 20.3633 3.16797 20.5703 3.29297 20.9844L6.10547 29.9961L6.33984 30.7227H6.42188L6.65625 29.9961L9.53906 20.9844C9.67969 20.5703 10.0938 20.3633 10.7812 20.3633H11.4141C12.25 20.3633 12.668 20.5195 12.668 20.832C12.668 20.9727 12.6445 21.0977 12.5977 21.207L8.09766 34.6016C8.05078 34.7578 7.92578 34.8711 7.72266 34.9414C7.52734 35.0039 7.26562 35.0352 6.9375 35.0352H5.85938ZM15.6736 35.0586C15.2517 35.0586 14.9353 35 14.7244 34.8828C14.5212 34.7656 14.4197 34.5977 14.4197 34.3789V21.043C14.4197 20.582 14.8377 20.3516 15.6736 20.3516H16.4002C16.8298 20.3516 17.1423 20.4102 17.3377 20.5273C17.5408 20.6445 17.6423 20.8164 17.6423 21.043V34.3789C17.6423 34.832 17.2283 35.0586 16.4002 35.0586H15.6736ZM21.5034 35C21.2144 35 21.0034 34.9336 20.8706 34.8008C20.7378 34.668 20.6714 34.457 20.6714 34.168V21.2422C20.6714 20.9531 20.7378 20.7461 20.8706 20.6211C21.0034 20.4883 21.2144 20.4219 21.5034 20.4219H29.1323C29.3511 20.4219 29.5073 20.5039 29.6011 20.668C29.7027 20.832 29.7534 21.0977 29.7534 21.4648V22.0977C29.7534 22.4648 29.7027 22.7305 29.6011 22.8945C29.5073 23.0586 29.3511 23.1406 29.1323 23.1406H23.8823V26.1641H28.5698C28.7886 26.1641 28.9448 26.2461 29.0386 26.4102C29.1402 26.5742 29.1909 26.8398 29.1909 27.207V27.8516C29.1909 28.2188 29.1402 28.4844 29.0386 28.6484C28.9448 28.8125 28.7886 28.8945 28.5698 28.8945H23.8823V32.2695H29.1441C29.3628 32.2695 29.5191 32.3516 29.6128 32.5156C29.7144 32.6797 29.7652 32.9414 29.7652 33.3008V33.957C29.7652 34.3242 29.7144 34.5898 29.6128 34.7539C29.5191 34.918 29.3628 35 29.1441 35H21.5034Z" fill="#C61F1F"/>
</svg>
